<?xml version="1.0" encoding="UTF-8"?>
<svg width="100px" height="94px" viewBox="0 0 100 94" version="1.1" xmlns="http://www.w3.org/2000/svg" xmlns:xlink="http://www.w3.org/1999/xlink">
    <!-- Generator: sketchtool 57.1 (101010) - https://sketch.com -->
    <title>C5AF8007-79A5-4CFC-A80A-2230ED9FB51B</title>
    <desc>Created with sketchtool.</desc>
    <g id="Page-1" stroke="none" stroke-width="1" fill="none" fill-rule="evenodd">
        <g id="6" transform="translate(-154.000000, -898.000000)" fill-rule="nonzero">
            <g id="Group-21" transform="translate(154.000000, 882.000000)">
                <g id="toilet" transform="translate(0.000000, 16.000000)">
                    <g>
                        <path d="M13.28125,4.01414815 L9.1796875,4.01414815 C8.04882812,4.01414815 7.12890625,4.9251358 7.12890625,6.04501235 L7.12890625,10.1067407 C7.12890625,11.2266173 8.04882812,12.1376049 9.1796875,12.1376049 L13.28125,12.1376049 C14.4121094,12.1376049 15.3320312,11.2266173 15.3320312,10.1067407 L15.3320312,6.04501235 C15.3320312,4.9251358 14.4121094,4.01414815 13.28125,4.01414815 Z M12.4023438,9.23637037 L10.0585938,9.23637037 L10.0585938,6.91538272 L12.4023438,6.91538272 L12.4023438,9.23637037 Z" id="Shape" fill="#3F3F3F"></path>
                        <path d="M96.1535156,28.5326749 L91.3316406,28.5326749 L91.3316406,27.0836049 C91.3316406,25.7503909 90.2365234,24.6659095 88.8902344,24.6659095 L76.4894531,24.6659095 C75.1431641,24.6659095 74.0480469,25.7503909 74.0480469,27.0836049 L74.0480469,28.5326749 L69.2261719,28.5326749 C67.8798828,28.5326749 66.7847656,29.6171564 66.7847656,30.9503704 L66.7847656,43.6132922 C66.7853516,44.9465062 67.8806641,46.0309877 69.2267578,46.0309877 L70.7236328,46.0309877 L70.7236328,57.218535 C70.7236328,57.9444239 70.7236328,58.3825103 71.1742187,58.8207901 C71.2152344,58.8606337 71.2585937,58.897963 71.3035156,58.9323909 C71.3529297,58.9786173 71.4503906,59.072037 71.5847656,59.2062675 L74.2523437,61.8759835 C74.6392578,62.2630082 75.1554687,62.4761523 75.7056641,62.4761523 C76.2556641,62.4761523 76.771875,62.2630082 77.1585937,61.8759835 L79.1980469,59.8354486 L81.2371094,61.8757901 C81.6240234,62.2628148 82.1402344,62.4761523 82.6902344,62.4761523 C83.2402344,62.4761523 83.7560547,62.2630082 84.1435547,61.8757901 L86.1824219,59.8354486 L88.2216797,61.8759835 C88.6083984,62.2630082 89.1246094,62.4761523 89.6748047,62.4761523 C90.2246094,62.4761523 90.740625,62.2632016 91.128125,61.8759835 L93.7958984,59.2064609 C93.9259766,59.0762922 94.0212891,58.9846132 94.0724609,58.9366461 C94.3738281,58.7142181 94.6382812,58.3262263 94.6527344,57.6504321 C94.6550781,57.5401852 94.6566406,57.3873868 94.6566406,57.2179547 L94.6566406,46.0309877 L96.1535156,46.0309877 C97.4998047,46.0309877 98.5949219,44.9465062 98.5949219,43.6132922 L98.5949219,30.9503704 C98.5949219,29.6171564 97.4998047,28.5326749 96.1535156,28.5326749 Z M91.7279297,49.4536708 L91.7275391,49.4536708 C91.1466797,49.6461193 90.7277344,50.1882634 90.7277344,50.8282757 C90.7277344,51.4684815 91.146875,52.0104321 91.7275391,52.2028807 L91.7275391,57.1521934 C91.7232422,57.1564486 91.71875,57.1608971 91.7144531,57.1653457 L89.6755859,59.2056872 L87.6359375,57.164572 C87.2490234,56.7777407 86.7332031,56.5647901 86.1832031,56.5647901 C85.6332031,56.5647901 85.1169922,56.7781276 84.7298828,57.1651523 L82.6910156,59.2053004 L80.6519531,57.1649588 C80.2650391,56.7777407 79.7488281,56.5647901 79.1986328,56.5647901 C78.6486328,56.5647901 78.1326172,56.7779342 77.7457031,57.1649588 L75.70625,59.2054938 L73.6673828,57.1651523 C73.6628906,57.1607037 73.6583984,57.1560617 73.6539062,57.1516132 L73.6539062,52.2783128 C74.4556641,52.2698025 75.103125,51.6243745 75.103125,50.8284691 C75.103125,50.0325638 74.4558594,49.3871358 73.6539062,49.3786255 L73.6539062,46.0309877 L91.7279297,46.0309877 L91.7279297,49.4536708 L91.7279297,49.4536708 Z M95.6658203,43.1297531 L69.7150391,43.1297531 L69.7150391,31.4339095 L74.0486328,31.4339095 L74.0486328,32.4044691 C74.0486328,33.7376831 75.14375,34.8221646 76.4900391,34.8221646 L80.859375,34.8221646 C81.6685547,34.8221646 82.3242188,34.1728683 82.3242188,33.3715473 C82.3242188,32.5702263 81.6685547,31.92093 80.859375,31.92093 L76.9783203,31.92093 L76.9783203,27.567144 L88.4025391,27.567144 L88.4025391,31.92093 L87.890625,31.92093 C87.0814453,31.92093 86.4257813,32.5702263 86.4257813,33.3715473 C86.4257813,34.1728683 87.0814453,34.8221646 87.890625,34.8221646 L88.8908203,34.8221646 C90.2371094,34.8221646 91.3322266,33.7376831 91.3322266,32.4044691 L91.3322266,31.4339095 L95.6658203,31.4339095 L95.6658203,43.1297531 L95.6658203,43.1297531 Z" id="Shape" fill="#00A799"></path>
                        <path d="M78.5205078,49.3778519 L77.5439453,49.3778519 C76.7347656,49.3778519 76.0791016,50.0271481 76.0791016,50.8284691 C76.0791016,51.6295967 76.7349609,52.2790864 77.5439453,52.2790864 L78.5205078,52.2790864 C79.3296875,52.2790864 79.9853516,51.6297901 79.9853516,50.8284691 C79.9853516,50.0271481 79.3296875,49.3778519 78.5205078,49.3778519 Z" id="Path" fill="#3F3F3F"></path>
                        <path d="M88.2861328,49.3778519 L87.3095703,49.3778519 C86.5003906,49.3778519 85.8447266,50.0271481 85.8447266,50.8284691 C85.8447266,51.6295967 86.5005859,52.2790864 87.3095703,52.2790864 L88.2861328,52.2790864 C89.0953125,52.2790864 89.7509766,51.6297901 89.7509766,50.8284691 C89.7509766,50.0271481 89.0953125,49.3778519 88.2861328,49.3778519 Z" id="Path" fill="#3F3F3F"></path>
                        <path d="M83.4033203,49.3778519 L82.4267578,49.3778519 C81.6175781,49.3778519 80.9619141,50.0271481 80.9619141,50.8284691 C80.9619141,51.6295967 81.6177734,52.2790864 82.4267578,52.2790864 L83.4033203,52.2790864 C84.2125,52.2790864 84.8681641,51.6297901 84.8681641,50.8284691 C84.8681641,50.0271481 84.2125,49.3778519 83.4033203,49.3778519 Z" id="Path" fill="#3F3F3F"></path>
                        <path d="M98.5351562,90.9782675 L50.1394531,90.9782675 L50.1394531,87.9079877 C50.1394531,86.5749671 49.0441406,85.4902922 47.6980469,85.4902922 L44.6861328,85.4902922 L39.9873047,73.3662263 C42.3871094,72.342284 44.596875,70.8663292 46.5066406,68.9805267 C50.0107422,65.520321 52.1513672,61.0353992 52.6462891,56.194786 L53.6884766,56.194786 C55.0347656,56.194786 56.1298828,55.1103045 56.1298828,53.7770905 L56.1298828,50.2232716 C56.1298828,48.8900576 55.0347656,47.8055761 53.6884766,47.8055761 L45.1064453,47.8055761 C46.0107422,46.9266955 46.8498047,45.9619383 47.6123047,44.9200082 L56.8332031,44.9200082 C58.7177734,44.9200082 60.2511719,43.4015021 60.2511719,41.5352346 L60.2511719,37.18493 L60.2511719,17.4741358 L63.1480469,17.4741358 C64.4943359,17.4741358 65.5894531,16.3896543 65.5894531,15.0564403 L65.5894531,7.44360082 C65.5894531,6.11038683 64.4943359,5.02590535 63.1480469,5.02590535 L60.2511719,5.02590535 L60.2511719,3.5052716 C60.2511719,1.63900412 58.7177734,0.120497942 56.8332031,0.120497942 L6.63847656,0.120497942 C4.75390625,0.120497942 3.22050781,1.63900412 3.22050781,3.5052716 L3.22050781,37.18493 L3.22050781,41.5352346 C3.22050781,43.4015021 4.75390625,44.9200082 6.63847656,44.9200082 L15.8591797,44.9200082 C16.6216797,45.9619383 17.4609375,46.9266955 18.3652344,47.8055761 L9.78320312,47.8055761 C8.43691406,47.8055761 7.34179687,48.8900576 7.34179687,50.2232716 L7.34179687,53.7770905 C7.34179687,55.1103045 8.43691406,56.194786 9.78320312,56.194786 L10.8251953,56.194786 C11.3203125,61.0353992 13.4611328,65.5205144 16.9652344,68.9805267 C18.875,70.8663292 21.0845703,72.3420905 23.484375,73.3662263 L18.7855469,85.4902922 L15.7736328,85.4902922 C14.4273437,85.4902922 13.3322266,86.5749671 13.3322266,87.9079877 L13.3322266,90.9782675 L1.89042969,90.9782675 C1.08144531,90.9782675 0.425585937,91.6275638 0.425585937,92.4288848 C0.425585937,93.2300123 1.08144531,93.8795021 1.89042969,93.8795021 L98.5351562,93.8795021 C99.3443359,93.8795021 100,93.2300123 100,92.4288848 C100,91.6275638 99.3443359,90.9782675 98.5351562,90.9782675 Z M60.2511719,7.92713992 L62.6597656,7.92713992 L62.6597656,14.5727078 L60.2511719,14.5727078 L60.2511719,7.92713992 Z M56.8332031,42.0187737 L49.4330078,42.0187737 C50.0066406,40.9441564 50.5072266,39.8130617 50.9294922,38.6355473 L57.3214844,38.6355473 L57.3214844,41.5352346 L57.3214844,41.5352346 C57.3214844,41.7973128 57.0978516,42.0187737 56.8332031,42.0187737 Z M6.63847656,42.0187737 C6.37382812,42.0187737 6.15019531,41.7973128 6.15019531,41.5352346 L6.15019531,38.6355473 L12.5419922,38.6355473 C12.9642578,39.8130617 13.4648437,40.9441564 14.0384766,42.0187737 L6.63847656,42.0187737 Z M13.9095703,29.5492675 C13.9095703,17.9745021 21.90625,8.55786831 31.7357422,8.55786831 C34.1164062,8.55786831 36.4275391,9.10213992 38.6052734,10.1759835 C39.3294922,10.5328354 40.2089844,10.2409712 40.5695312,9.52397942 C40.9300781,8.80679424 40.6353516,7.93603704 39.9111328,7.57879835 C37.3242187,6.30322222 34.5736328,5.65663374 31.7359375,5.65663374 C20.2910156,5.65663374 10.9800781,16.3747613 10.9800781,29.5492675 C10.9800781,31.6878642 11.2277344,33.7605062 11.6876953,35.7343128 L6.15019531,35.7343128 L6.15019531,3.5052716 C6.15019531,3.24319342 6.37382812,3.02173251 6.63847656,3.02173251 L56.8332031,3.02173251 C57.0978516,3.02173251 57.3214844,3.24319342 57.3214844,3.5052716 L57.3214844,35.7343128 L51.7839844,35.7343128 C52.2439453,33.7606996 52.4916016,31.6878642 52.4916016,29.5492675 C52.4916016,22.8874527 50.0515625,16.4793992 45.7970703,11.9683663 C45.2447266,11.3828971 44.3177734,11.3517572 43.7267578,11.8983498 C43.1355469,12.4451358 43.1039062,13.3630864 43.6560547,13.948749 C47.409375,17.9284691 49.5619141,23.6146955 49.5619141,29.5494609 C49.5619141,37.3640329 45.9150391,44.1923786 40.5216797,47.8057695 L22.9496094,47.8057695 C17.5564453,44.1921852 13.9095703,37.3640329 13.9095703,29.5492675 Z M10.2714844,53.2935514 L10.2714844,50.7068107 L53.2003906,50.7068107 L53.2003906,53.2935514 L10.2714844,53.2935514 Z M19.0333984,66.9260658 C16.0841797,64.0138066 14.2580078,60.2570947 13.7751953,56.194786 L49.6962891,56.194786 C49.2136719,60.2570947 47.3875,64.0138066 44.4378906,66.9260658 C41.0314453,70.2899506 36.5205078,72.1424856 31.7357422,72.1424856 C26.9509766,72.1424856 22.4400391,70.2899506 19.0333984,66.9260658 Z M47.2097656,90.9782675 L16.2619141,90.9782675 L16.2619141,88.3915267 L33.0078125,88.3915267 C33.8167969,88.3915267 34.4726562,87.7422305 34.4726562,86.9409095 C34.4726562,86.1397819 33.8167969,85.4902922 33.0078125,85.4902922 L21.9234375,85.4902922 L26.2513672,74.3232469 C28.0185547,74.7978889 29.8589844,75.0439136 31.7359375,75.0439136 C33.6128906,75.0439136 35.453125,74.7980823 37.2201172,74.3234403 L41.5480469,85.4902922 L39.84375,85.4902922 C39.0347656,85.4902922 38.3789062,86.1397819 38.3789062,86.9409095 C38.3789062,87.7422305 39.0347656,88.3915267 39.84375,88.3915267 L47.2097656,88.3915267 L47.2097656,90.9782675 Z" id="Shape" fill="#3F3F3F"></path>
                        <path d="M85.2314453,7.21498354 C82.2632813,6.29006996 81.9056641,5.93167078 80.9791016,2.95423045 C80.6990234,2.05716872 79.8759766,1.4544856 78.9308594,1.4544856 C77.9841797,1.4544856 77.1607422,2.0581358 76.8826172,2.95558436 C75.9564453,5.9318642 75.5988281,6.29006996 72.6316406,7.21479012 C71.7320312,7.4940823 71.127539,8.31106996 71.127539,9.24758848 C71.1273437,10.1839136 71.7318359,11.0010947 72.6300781,11.28 C75.5982422,12.2049136 75.9560547,12.5633128 76.8818359,15.5380453 C77.1605469,16.4366543 77.9839844,17.0406914 78.9306641,17.0406914 C79.8759766,17.0406914 80.6992188,16.4378148 80.9792969,15.5395926 C81.9054687,12.5633128 82.2632812,12.205107 85.2298828,11.2805802 C86.1292969,11.0014815 86.7337891,10.1843004 86.7337891,9.24739506 C86.7337891,8.31068313 86.1292969,7.49388889 85.2314453,7.21498354 Z M78.9308594,12.6312016 C78.1689453,10.9335926 77.2359375,10.0079053 75.525,9.24739506 C77.2359375,8.4872716 78.16875,7.56197119 78.9308594,5.86358848 C79.6925781,7.56139095 80.6255859,8.48707819 82.3363281,9.24739506 C80.6255859,10.0077119 79.6925781,10.9333992 78.9308594,12.6312016 Z" id="Shape" fill="#00A799"></path>
                        <path d="M12.7730469,76.043679 C10.1755859,75.2340412 9.90019531,74.9582305 9.08925781,72.3523416 C8.81914062,71.4864198 8.02441406,70.9046255 7.11152344,70.9046255 C6.19707031,70.9046255 5.40214844,71.4877737 5.13398437,72.3533086 C4.3234375,74.9582305 4.04804687,75.2342346 1.45078125,76.043679 C0.583203125,76.3140741 0,77.1024362 0,78.0058807 C0,78.9095185 0.58359375,79.6982675 1.45058594,79.9675021 C4.021875,80.7690165 4.33183594,81.0792551 5.13359375,83.6559383 C5.40214844,84.5234074 6.19726562,85.1065556 7.11171875,85.1065556 C8.02460937,85.1065556 8.81933594,84.5245679 9.08964844,83.6578724 C9.8921875,81.0792551 10.2019531,80.7686296 12.7716797,79.9678889 C13.6400391,79.6980741 14.2234375,78.9097119 14.2234375,78.0056872 C14.2234375,77.1022428 13.6404297,76.3138807 12.7730469,76.043679 Z M7.11210938,80.6413621 C6.49179688,79.3826132 5.72714844,78.624037 4.45761719,78.0058807 C5.72695312,77.3875309 6.49160156,76.6293416 7.11210938,75.3702058 C7.73242188,76.6291481 8.496875,77.3875309 9.76640625,78.0056872 C8.49707031,78.624037 7.73242188,79.3824198 7.11210938,80.6413621 Z" id="Shape" fill="#00A799"></path>
                        <path d="M68.0289063,63.34807 C65.5984375,62.5904609 65.340625,62.3324444 64.5824219,59.895214 C64.3166016,59.0410905 63.5333984,58.4672263 62.6335937,58.4672263 C61.7326172,58.4672263 60.9496094,59.0418642 60.6855469,59.8948272 C59.9269531,62.332251 59.6693359,62.5902675 57.2404297,63.3474897 C56.3845703,63.6130494 55.8097656,64.3898066 55.8097656,65.2799053 C55.8097656,66.1703909 56.3845703,66.9473416 57.2386719,67.2125144 C59.6689453,67.96993 59.9267578,68.2281399 60.6851562,70.6647901 C60.9501953,71.519107 61.7330078,72.0931646 62.6335937,72.0931646 C63.5330078,72.0931646 64.3160156,71.5198807 64.5822266,70.666144 C65.3410156,68.2283333 65.5986328,67.9701235 68.0277344,67.2130947 C68.8830078,66.9473416 69.4574219,66.1703909 69.4574219,65.2800988 C69.4574219,64.3898066 68.8830078,63.6134362 68.0289063,63.34807 Z M62.6337891,67.6132716 C62.0726563,66.5251152 61.3810547,65.8394568 60.2833984,65.2800988 C61.3808594,64.7209342 62.0724609,64.0352757 62.6337891,62.9469259 C63.1951172,64.0350823 63.8863281,64.7205473 64.9841797,65.2797119 C63.8863281,65.8392634 63.1951172,66.5247284 62.6337891,67.6132716 Z" id="Shape" fill="#00A799"></path>
                        <path d="M20.5664062,19.2330576 C20.2949219,18.9644033 19.9160156,18.8096708 19.53125,18.8096708 C19.1445312,18.8096708 18.7675781,18.9644033 18.4960938,19.2330576 C18.2226562,19.5038395 18.0664062,19.8771317 18.0664062,20.2602881 C18.0664062,20.6413169 18.2226562,21.0144156 18.4960938,21.2853909 C18.7675781,21.5561728 19.1464844,21.7109053 19.53125,21.7109053 C19.9160156,21.7109053 20.2949219,21.5561728 20.5664062,21.2853909 C20.8398438,21.0146091 20.9960938,20.6413169 20.9960938,20.2602881 C20.9960938,19.8773251 20.8398438,19.5040329 20.5664062,19.2330576 Z" id="Path" fill="#3F3F3F"></path>
                        <path d="M45.1757812,19.2330576 C44.9042969,18.9642099 44.5253906,18.8096708 44.140625,18.8096708 C43.7558594,18.8096708 43.3769531,18.9644033 43.1054688,19.2330576 C42.8320312,19.5038395 42.6757812,19.8771317 42.6757812,20.2602881 C42.6757812,20.6413169 42.8320312,21.0144156 43.1054688,21.2853909 C43.3769531,21.5561728 43.7558594,21.7109053 44.140625,21.7109053 C44.5253906,21.7109053 44.9042969,21.5561728 45.1757812,21.2853909 C45.4492188,21.0146091 45.6054688,20.6413169 45.6054688,20.2602881 C45.6054688,19.8773251 45.4492188,19.5040329 45.1757812,19.2330576 Z" id="Path" fill="#3F3F3F"></path>
                        <path d="M20.5664062,37.6075432 C20.2949219,37.3388889 19.9160156,37.1822222 19.53125,37.1822222 C19.1445312,37.1822222 18.7675781,37.3388889 18.4960938,37.6075432 C18.2226562,37.8783251 18.0664062,38.2516173 18.0664062,38.6347737 C18.0664062,39.0158025 18.2226562,39.3889012 18.4960938,39.6598765 C18.7675781,39.9306584 19.1464844,40.0853909 19.53125,40.0853909 C19.9160156,40.0853909 20.2929688,39.9306584 20.5664062,39.6598765 C20.8398438,39.3890947 20.9960938,39.0158025 20.9960938,38.6347737 C20.9960938,38.2518107 20.8398438,37.8785185 20.5664062,37.6075432 Z" id="Path" fill="#3F3F3F"></path>
                        <path d="M45.1757812,37.6075432 C44.9042969,37.3386955 44.5253906,37.1822222 44.140625,37.1822222 C43.7539062,37.1822222 43.3769531,37.3388889 43.1054688,37.6075432 C42.8320312,37.8783251 42.6757812,38.2516173 42.6757812,38.6347737 C42.6757812,39.0158025 42.8320312,39.3889012 43.1054688,39.6598765 C43.3769531,39.9306584 43.7558594,40.0853909 44.140625,40.0853909 C44.5253906,40.0853909 44.9023438,39.9306584 45.1757812,39.6598765 C45.4492188,39.3890947 45.6054688,39.0158025 45.6054688,38.6347737 C45.6054688,38.2518107 45.4492188,37.8785185 45.1757812,37.6075432 Z" id="Path" fill="#3F3F3F"></path>
                    </g>
                </g>
            </g>
        </g>
    </g>
</svg>