<?xml version="1.0" encoding="UTF-8"?>
<svg width="100px" height="100px" viewBox="0 0 100 100" version="1.1" xmlns="http://www.w3.org/2000/svg" xmlns:xlink="http://www.w3.org/1999/xlink">
    <!-- Generator: sketchtool 57.1 (101010) - https://sketch.com -->
    <title>3FAF5F47-8D99-411B-AC54-32A532036E3B</title>
    <desc>Created with sketchtool.</desc>
    <g id="Page-1" stroke="none" stroke-width="1" fill="none" fill-rule="evenodd">
        <g id="6" transform="translate(-154.000000, -1092.000000)" fill-rule="nonzero">
            <g id="Group-19" transform="translate(154.000000, 1092.000000)">
                <g id="house">
                    <g>
                        <path d="M7.69492188,74.8734375 C7.9015625,74.9583984 8.11816406,75 8.33320313,75 C8.76660156,75 9.19316406,74.8300781 9.51152344,74.5117187 L36.6714844,47.3533203 L63.8216797,74.5117187 C64.2966797,74.9884766 65.0132813,75.1316406 65.6382813,74.8734375 C66.2599609,74.6150391 66.6666016,74.0068359 66.6666016,73.3333984 L66.6666016,51.6666016 C66.6666016,50.7466797 65.9199219,50 65,50 C64.0800781,50 63.3333984,50.7466797 63.3333984,51.6666016 L63.3333984,69.3082031 L37.8550781,43.8216797 C37.2300781,43.1966797 36.1134766,43.1966797 35.4884766,43.8216797 L10.0001953,69.3099609 L10.0001953,50 L18.3335938,50 C19.2535156,50 20.0001953,49.2533203 20.0001953,48.3333984 L20.0001953,46.6667969 L23.3335938,46.6667969 L23.3335938,48.3333984 C23.3335938,49.2533203 24.0802734,50 25.0001953,50 C25.9201172,50 26.6667968,49.2533203 26.6667968,48.3333984 L26.6667968,45 C26.6667968,44.0800781 25.9201172,43.3333984 25.0001953,43.3333984 L18.3333984,43.3333984 C17.4134766,43.3333984 16.6667968,44.0800781 16.6667968,45 L16.6667968,46.6666016 L8.33339844,46.6666016 C7.41347656,46.6666016 6.6667968,47.4132812 6.6667968,48.3332031 L6.6667968,73.3332031 C6.6667968,74.0066406 7.07324219,74.6150391 7.69492188,74.8734375 Z" id="Path" fill="#3F3F3F"></path>
                        <path d="M46.8316406,34.9882812 C46.7283203,36.5400391 46.6666016,38.1982422 46.6666016,40 C46.6666016,48.3482422 49.1582031,53.3333984 53.3332031,53.3333984 C58.5964844,53.3333984 59.9998047,47.0484375 59.9998047,43.3333984 C59.9998047,42.4134766 59.253125,41.6667969 58.3332031,41.6667969 C57.4132812,41.6667969 56.6666016,42.4134766 56.6666016,43.3333984 C56.6666016,43.4 56.5232422,50 53.3332031,50 C51.4015625,50 49.9998047,45.7949219 49.9998047,40 C49.9998047,20.5683594 56.8197266,18.3550781 57.0347656,18.2933594 C57.9130859,18.0933594 58.478125,17.2283203 58.2998047,16.3400391 C58.1214844,15.4382812 57.2498047,14.8517578 56.3398437,15.0333984 C56.0064453,15.1 54.7982422,15.4167969 53.3449219,16.6617188 C53.3466797,16.375 53.3699219,16.0884766 53.4466797,15.8033203 C53.6767578,14.9433594 54.2283203,14.225 55,13.7800781 C55.7716797,13.3351563 56.6699219,13.2167969 57.5283203,13.4466797 C58.3882812,13.6783203 59.1083984,14.2300781 59.5515625,15 C60.4714844,16.5916016 59.9248047,18.6349609 58.3332031,19.5533203 C57.5349609,20.0150391 57.2632812,21.0349609 57.7232422,21.8316406 C58.0316406,22.3650391 58.5916016,22.6632813 59.1681641,22.6632813 C59.4515625,22.6632813 59.7380859,22.5916016 59.9998047,22.4400391 C63.1832031,20.6 64.2765625,16.5150391 62.4398437,13.3333984 C61.5498047,11.7917969 60.1115234,10.6884766 58.3916016,10.2267578 C56.6683594,9.76503906 54.8732422,10.0035156 53.3332031,10.8933594 C51.7916016,11.7833984 50.6882812,13.2216797 50.2265625,14.9416016 C49.7949219,16.5515625 49.9998047,18.2232422 50.7832031,19.7449219 C49.353125,22.0716797 48.0166016,25.5365234 47.2732422,30.6898438 C44.7783203,27.7015625 43.3332031,23.8949219 43.3332031,19.9998047 C43.3332031,10.8097656 50.8099609,3.33320313 59.9998047,3.33320313 C69.1896484,3.33320313 76.6664062,10.8099609 76.6664062,19.9998047 C76.6664062,29.1896484 69.1896484,36.6664063 59.9998047,36.6664063 C58.1898437,36.6664063 56.4097656,36.378125 54.7115234,35.8113281 C53.8416016,35.5212891 52.8949219,35.9914062 52.603125,36.8630859 C52.3097656,37.7363281 52.7814453,38.6796875 53.6548828,38.9714844 C55.6949219,39.653125 57.8298828,39.9998047 59.9998047,39.9998047 C71.028125,39.9998047 79.9998047,31.028125 79.9998047,19.9998047 C79.9998047,8.97167969 71.0283203,0 60,0 C48.9716797,0 40,8.97167969 40,20 C40,25.6833984 42.5517578,31.2066406 46.8316406,34.9882812 Z" id="Path" fill="#00A799"></path>
                        <path d="M99.5117187,48.8216797 L82.2017578,31.5117188 C81.5517578,30.8617188 80.4966797,30.8617188 79.8451172,31.5117188 C79.1951172,32.1634766 79.1951172,33.2183594 79.8451172,33.8683594 L96.6667969,50.6900391 L96.6667969,56.6667969 L90.6900391,56.6667969 L90,55.9767578 L90,51.6667969 C90,50.746875 89.2533203,50.0001953 88.3333984,50.0001953 L86.6667969,50.0001953 L86.6667969,48.3335937 C86.6667969,47.4136719 85.9201172,46.6669922 85.0001953,46.6669922 L80.6917969,46.6669922 L80.0001953,45.9753906 L80.0001953,41.6669922 C80.0001953,40.7470703 79.2535156,40.0003906 78.3335937,40.0003906 L74.0234375,40.0003906 L73.8617187,39.8386719 C73.2117187,39.1886719 72.1566406,39.1886719 71.5050781,39.8386719 C70.8550781,40.4904297 70.8550781,41.5453125 71.5050781,42.1953125 L72.1550781,42.8453125 C72.4667969,43.1585938 72.8917969,43.3335938 73.3333984,43.3335938 L76.6667969,43.3335938 L76.6667969,46.6652344 C76.6667969,47.1068359 76.8417969,47.5302734 77.1535156,47.8419922 L78.8201172,49.5119141 C79.1333984,49.8251953 79.5568359,50.0001953 80.0001953,50.0001953 L83.3335937,50.0001953 L83.3335937,51.6667969 C83.3335937,52.5867188 84.0802734,53.3333984 85.0001953,53.3333984 L86.6667969,53.3333984 L86.6667969,56.6667969 C86.6667969,57.1083984 86.8417969,57.5333984 87.1550781,57.8451172 L88.8216797,59.5117188 C89.1333984,59.825 89.5583984,60 90,60 L98.3333984,60 C99.2533203,60 100,59.2533203 100,58.3333984 L100,50 C100,49.5583984 99.825,49.1333984 99.5117187,48.8216797 Z" id="Path" fill="#00A799"></path>
                        <path d="M41.6666016,73.3333984 C40.7466797,73.3333984 40,74.0800781 40,75 L40,88.3333984 C40,89.2533203 40.7466797,90 41.6666016,90 L51.6666016,90 C52.5865234,90 53.3332031,89.2533203 53.3332031,88.3333984 L53.3332031,75 C53.3332031,74.0800781 52.5865234,73.3333984 51.6666016,73.3333984 L41.6666016,73.3333984 Z M50,86.6666016 L43.3333984,86.6666016 L43.3333984,76.6666016 L50,76.6666016 L50,86.6666016 Z" id="Shape" fill="#3F3F3F"></path>
                        <path d="M98.3333984,96.6666016 L80,96.6666016 L80,89.8316406 C83.7982422,89.0566406 86.6666016,85.6916016 86.6666016,81.6666016 C86.6666016,81.45 86.5716797,60 78.3332031,60 C70.0949219,60 69.9998047,81.45 69.9998047,81.6666016 C69.9998047,85.6916016 72.8681641,89.0566406 76.6664062,89.8316406 L76.6664062,96.6666016 L63.3330078,96.6666016 L63.3330078,77.5 C63.3330078,76.5800781 62.5863281,75.8333984 61.6664062,75.8333984 C60.7464844,75.8333984 59.9998047,76.5800781 59.9998047,77.5 L59.9998047,96.6666016 L36.6666016,96.6666016 L36.6666016,75 C36.6666016,74.0800781 35.9199219,73.3333984 35,73.3333984 L21.6666016,73.3333984 C20.7466797,73.3333984 20,74.0800781 20,75 L20,96.6666016 L13.3333984,96.6666016 L13.3333984,77.5 C13.3333984,76.5800781 12.5867187,75.8333984 11.6667969,75.8333984 C10.746875,75.8333984 10,76.5800781 10,77.5 L10,96.6666016 L1.66660156,96.6666016 C0.746679687,96.6666016 0,97.4132812 0,98.3332031 C0,99.253125 0.746679688,100 1.66660156,100 L98.3332031,100 C99.253125,100 99.9998047,99.2533203 99.9998047,98.3333984 C99.9998047,97.4134766 99.2533203,96.6666016 98.3333984,96.6666016 Z M33.3333984,85 L31.6667969,85 C30.746875,85 30.0001953,85.7466797 30.0001953,86.6666016 C30.0001953,87.5865234 30.746875,88.3332031 31.6667969,88.3332031 L33.3333984,88.3332031 L33.3333984,96.6666016 L23.3333984,96.6666016 L23.3333984,76.6666016 L33.3333984,76.6666016 L33.3333984,85 Z M73.3333984,81.6666016 C73.3333984,73.3632812 75.5634766,63.3332031 78.3333984,63.3332031 C81.1033203,63.3332031 83.3333984,73.3632812 83.3333984,81.6666016 C83.3333984,84.4232422 81.0900391,86.6666016 78.3333984,86.6666016 C75.5767578,86.6666016 73.3333984,84.4232422 73.3333984,81.6666016 Z" id="Shape" fill="#3F3F3F"></path>
                    </g>
                </g>
            </g>
        </g>
    </g>
</svg>