<?xml version="1.0" encoding="UTF-8"?>
<svg width="80px" height="106px" viewBox="0 0 80 106" version="1.1" xmlns="http://www.w3.org/2000/svg" xmlns:xlink="http://www.w3.org/1999/xlink">
    <!-- Generator: sketchtool 57.1 (101010) - https://sketch.com -->
    <title>F070290F-04C0-4CE1-B82A-91EC66CF7A5B</title>
    <desc>Created with sketchtool.</desc>
    <g id="Page-1" stroke="none" stroke-width="1" fill="none" fill-rule="evenodd">
        <g id="6" transform="translate(-164.000000, -1279.000000)" fill-rule="nonzero">
            <g id="Group-16" transform="translate(164.000000, 1277.000000)">
                <g id="placeholder" transform="translate(0.000000, 2.000000)">
                    <path d="M58.4073243,16.4220737 C46.5281298,7.03539063 29.484755,8.04208682 18.7634363,18.7631309 C8.04149381,29.4847987 7.03539558,46.5281527 16.4231508,58.4074587 C16.7308642,58.7968726 17.1870286,59 17.6475592,59 C17.986044,59 18.3272317,58.8904317 18.6135299,58.6642265 C19.289252,58.1303158 19.4040208,57.1496083 18.8700964,56.4739035 C10.462866,45.8356072 11.365007,30.5715399 20.9685774,20.9684234 C30.571732,11.3655148 45.8355666,10.463397 56.4739274,18.8689567 C57.1490258,19.4026595 58.1299664,19.2883095 58.6640987,18.6121889 C59.1980231,17.936692 59.0830464,16.9559844 58.4073243,16.4220737 Z" id="Path" fill="#3F3F3F"></path>
                    <path d="M39.9998958,0 C17.9438843,0 0,17.819766 0,39.7232154 C0,49.029873 2.06721686,58.3005072 6.1439036,67.2779858 C9.39253615,74.4315226 13.9168141,81.4128097 19.5914453,88.0284804 C29.2364421,99.2725327 38.745723,105.488634 39.1457825,105.747836 C39.4053312,105.915945 39.7026135,106 39.9998958,106 C40.2971781,106 40.5944604,105.915945 40.8540091,105.747836 C41.254277,105.488634 50.7635579,99.2725327 60.4083462,88.0284804 C66.0829774,81.4130168 70.6074638,74.4315226 73.8560964,67.2779858 C77.9329916,58.3007143 80,49.029873 80,39.7232154 C80,17.819766 62.0559072,0 39.9998958,0 Z M71.0273282,65.9525743 C67.9096166,72.8313812 63.5558694,79.5578134 58.0872094,85.945129 C50.3618307,94.9679473 42.5418053,100.778061 39.9994788,102.56246 C37.4654912,100.785721 29.6917468,95.0139082 21.9719969,86.0142773 C16.4883268,79.6215789 12.1220713,72.8881076 8.99456146,66.0010195 C5.10112237,57.4276652 3.12709287,48.5866199 3.12709287,39.7230084 C3.12709287,19.5321181 19.6681633,3.10546268 39.9998958,3.10546268 C60.3316282,3.10546268 76.8726987,19.5321181 76.8726987,39.7232154 C76.8726987,48.5698504 74.9061742,57.3947473 71.0273282,65.9525743 Z" id="Shape" fill="#3F3F3F"></path>
                    <path d="M48.2823357,31.280605 C48.0488071,31.1371248 42.455722,27.7868128 33.2952566,29.4735462 C32.5420356,29.6122767 32,30.2214244 32,30.9289301 L32,32.5155242 C32,33.3354393 32.7214251,33.9998021 33.6112829,33.9998021 C34.5011407,33.9998021 35.2225657,33.3352414 35.2225657,32.5155242 L35.2225657,32.1798795 C38.6739336,31.7254926 41.4053804,32.0981453 43.1584561,32.5232425 C45.2707406,33.0352194 46.461586,33.7310489 46.501331,33.7545994 C46.7743897,33.9206406 47.082467,34 47.3871069,34 C47.9078735,34 48.4187576,33.7678589 48.7291981,33.3388037 C49.2228952,32.6568275 49.0226664,31.7351899 48.2823357,31.280605 Z" id="Path" fill="#00A799"></path>
                    <path d="M63.5781312,21.3640778 C63.0442176,20.6989185 62.0637128,20.5859785 61.3882124,21.111395 C60.712504,21.6368116 60.5973217,22.601712 61.1314432,23.2666667 C69.537463,33.7355088 68.6349246,48.7561193 59.0319654,58.2062508 C58.8408958,58.3942795 58.6467077,58.5776024 58.4514799,58.7588793 C58.1190314,58.5645079 57.7693264,58.3983715 57.4031964,58.26313 L49.4774493,55.3383523 C48.7886426,55.0842373 48.3262501,54.4274667 48.3262501,53.7037914 L48.3262501,49.769101 C48.6657676,49.5027099 48.9942658,49.2187231 49.3102894,48.9167314 C51.9000196,46.4437137 53.3260761,43.1263059 53.3260761,39.575857 L53.3260761,36.6578312 L53.7722516,35.7792726 C54.570627,34.2079335 54.9924769,32.4489749 54.9924769,30.6922669 L54.9924769,21.5345108 C54.9924769,20.686847 54.2945221,20 53.4331499,20 L36.0668215,20 C30.0790059,20 25.2076685,24.7940165 25.2076685,30.6922669 C25.2076685,32.4491795 25.6297263,34.2083427 26.4281017,35.7794772 L26.8742772,36.6578312 L26.8742772,39.0942252 C26.8742772,43.3149484 28.8363263,47.1317884 31.8741031,49.6213788 L31.8741031,53.7035868 C31.8741031,54.4272621 31.4115028,55.0840327 30.7231119,55.3381477 L24.6394497,57.5832394 C23.0757567,58.1604201 21.7962769,59.3557017 21.1297166,60.8625913 C20.8471666,61.5013571 21.0371965,62.2473339 21.5927328,62.6792476 C27.0393579,66.9147021 33.5698193,69 40.0805291,69 C47.7700902,69 55.4311675,66.0897491 61.2370616,60.3764583 C71.9579543,49.8257756 72.9644479,33.0539814 63.5781312,21.3640778 Z M29.993139,39.0944298 L29.993139,36.2956867 C29.993139,36.0575306 29.9367953,35.8224435 29.8284741,35.6094534 L29.2176337,34.4070107 C28.6346533,33.2598104 28.3265303,31.975118 28.3265303,30.6865381 C28.3265303,26.486275 31.7988396,23.0692263 36.0670294,23.0692263 L51.8740309,23.0692263 L51.8740309,30.6924715 C51.8740309,31.9753226 51.5661158,33.2598104 50.9831354,34.4070107 L50.372295,35.6094534 C50.2639738,35.8226481 50.2076301,36.0575306 50.2076301,36.2956867 L50.2076301,39.575857 C50.2076301,42.2892814 49.1177645,44.8242933 47.1384588,46.7144014 C45.1599847,48.6034866 42.5513347,49.6011232 39.7882073,49.5174412 C34.3871145,49.3580567 29.993139,44.6820953 29.993139,39.0944298 Z M38.5407457,65.8865798 C33.679388,65.6115955 28.8656417,64.0339137 24.6752103,61.1171155 C24.977096,60.8304689 25.3376124,60.6037705 25.734721,60.4570713 L31.8183832,58.2119796 C32.2473021,58.0536181 32.6423316,57.8361268 33.0001451,57.5750553 L38.5407457,61.664629 L38.5407457,65.8865798 Z M34.7898367,55.0596852 C34.9208201,54.6253163 34.992965,54.1698735 34.992965,53.7037914 L34.992965,51.528878 C36.4500001,52.1617103 38.035108,52.5361309 39.6944398,52.5852353 C39.8318684,52.5893273 39.9682576,52.5911687 40.1050625,52.5911687 C41.8858139,52.5911687 43.6112612,52.2451877 45.2073883,51.587394 L45.2073883,53.7035868 C45.2073883,54.1698735 45.2795331,54.6251117 45.4105166,55.0594806 L40.1002806,58.979235 L34.7898367,55.0596852 Z M41.6596076,65.884943 L41.6596076,61.664629 L47.2004161,57.5750553 C47.5582296,57.8361268 47.9532591,58.0536181 48.382178,58.2119796 L55.7742195,60.9397261 C51.5667395,63.935705 46.6531963,65.5960458 41.6596076,65.884943 Z" id="Shape" fill="#00A799"></path>
                </g>
            </g>
        </g>
    </g>
</svg>