<?xml version="1.0" encoding="UTF-8"?>
<svg width="100px" height="84px" viewBox="0 0 100 84" version="1.1" xmlns="http://www.w3.org/2000/svg" xmlns:xlink="http://www.w3.org/1999/xlink">
    <!-- Generator: sketchtool 57.1 (101010) - https://sketch.com -->
    <title>F9E14F7E-2450-48E6-8174-28C595F9496F</title>
    <desc>Created with sketchtool.</desc>
    <g id="Page-1" stroke="none" stroke-width="1" fill="none" fill-rule="evenodd">
        <g id="6" transform="translate(-726.000000, -1100.000000)" fill-rule="nonzero">
            <g id="bed-(2)-copy" transform="translate(726.000000, 1100.000000)">
                <g>
                    <path d="M100,60.2830947 C100,54.5804037 95.3399658,49.9410808 89.6110535,49.9410808 L46.1891174,49.9410808 L46.1891174,49.1602648 C46.1891174,42.3592664 40.6311035,36.8267144 33.8005066,36.8267144 L23.2398986,36.8267144 C16.4085389,36.8267144 10.8512879,42.3600259 10.8512879,49.1602648 L10.8512879,49.9410808 L8.77227773,49.9410808 L8.77227773,41.1933593 C8.77227773,38.7855903 6.80465703,36.8267144 4.38613887,36.8267144 C1.9676209,36.8267144 -2.84217094e-14,38.7855903 -2.84217094e-14,41.1933593 L-2.84217094e-14,62.892144 C-2.84217094e-14,63.6980252 0.65612793,64.351237 1.46560664,64.351237 C2.27508555,64.351237 2.93121328,63.6980252 2.93121328,62.892144 L2.93121328,41.1933593 C2.93121328,40.3943143 3.58352656,39.7441407 4.38613887,39.7441407 C5.18875117,39.7441407 5.84182734,40.3943143 5.84182734,41.1933593 L5.84182734,79.6029731 C5.84182734,80.4012588 5.18875117,81.0514324 4.38613887,81.0514324 C3.58352656,81.0514324 2.93121328,80.4012588 2.93121328,79.6029731 L2.93121328,69.3110894 C2.93121328,68.5052083 2.27508555,67.8519965 1.46560664,67.8519965 C0.65612793,67.8519965 -2.84217094e-14,68.5052083 -2.84217094e-14,69.3110894 L-2.84217094e-14,79.6029731 C-2.84217094e-14,82.0107421 1.9676209,83.9696181 4.38613887,83.9696181 C6.80465703,83.9696181 8.77227773,82.0107421 8.77227773,79.6029731 L8.77227773,72.3394097 L91.2086486,72.3394097 L91.2086486,79.6029731 C91.2086486,82.0107421 93.1762695,83.9696181 95.5947875,83.9696181 C98.0133057,83.9696181 99.9816895,82.0107421 99.9816895,79.6029731 L100,60.2830947 Z M8.77227773,52.8592664 L31.3957215,52.8592664 C32.2052002,52.8592664 32.8613281,52.2060546 32.8613281,51.4001736 C32.8613281,50.5942926 32.2052002,49.9410808 31.3957215,49.9410808 L13.7817383,49.9410808 L13.7817383,49.1602648 C13.7817383,43.9679905 18.0244445,39.7441407 23.2398986,39.7441407 L33.8005066,39.7441407 C39.0151977,39.7441407 43.258667,43.9679905 43.258667,49.1602648 L43.258667,49.9410808 L38.3041383,49.9410808 C37.4946594,49.9410808 36.8385314,50.5942926 36.8385314,51.4001736 C36.8385314,52.2060546 37.4946594,52.8592664 38.3041383,52.8592664 L89.6110535,52.8592664 C93.7232971,52.8592664 97.0687867,56.1898871 97.0687867,60.2830947 L97.0687867,69.4219836 L8.77227773,69.4219836 L8.77227773,52.8592664 Z M95.5947875,81.0521919 C94.7929383,81.0521919 94.1398621,80.4020183 94.1398621,79.6029731 L94.1398621,72.3394097 L97.0504762,72.3394097 L97.0504762,79.6029731 C97.0504762,80.4020183 96.3974,81.0521919 95.5947875,81.0521919 L95.5947875,81.0521919 Z" id="Shape" fill="#3F3F3F"></path>
                    <path d="M41.9998168,12.8173829 C42.1104432,12.9252387 42.1615602,13.0801866 42.1348572,13.232856 L41.657257,16.007487 C41.4367676,17.2880859 41.9548035,18.5572917 43.0107117,19.320638 C43.6065674,19.7520616 44.304657,19.9708116 45.0073242,19.9708116 C45.5474854,19.9708116 46.0914611,19.8409287 46.5934754,19.578125 L49.0966797,18.2679037 C49.2340088,18.196506 49.3980408,18.1957465 49.5353699,18.2679037 L52.0385742,19.578125 C53.1936645,20.1834852 54.5669555,20.0839843 55.6221008,19.320638 C56.6772461,18.5572917 57.1960449,17.2880859 56.9755555,16.007487 L56.4971924,13.232856 C56.4712523,13.0801866 56.5216064,12.9252387 56.6329957,12.8173829 L58.6578369,10.8516711 C59.5924377,9.94552961 59.9220275,8.61480044 59.5191955,7.37977431 C59.2697145,6.61338981 58.4426879,6.19411897 57.672882,6.44325092 C56.9030762,6.69162317 56.4819336,7.51497406 56.7321777,8.28135856 C56.7657471,8.38465717 56.7947387,8.585178 56.6123963,8.76215278 L54.586792,10.7278646 C53.7849426,11.5064019 53.4194945,12.6267361 53.6087035,13.725803 L54.0863037,16.5011935 C54.1297912,16.7510852 53.9871215,16.8961588 53.8993836,16.9599609 C53.8101195,17.023763 53.62854,17.1133898 53.40271,16.9956597 L50.8995057,15.6854384 C49.9076844,15.1659072 48.7243652,15.1666667 47.7333068,15.6854384 L45.2293396,16.9956597 C45.0042725,17.1141493 44.8219299,17.0245227 44.732666,16.9599609 C44.644165,16.8961588 44.5022582,16.7510852 44.5457459,16.5011935 L45.0233459,13.725803 C45.2125549,12.6267361 44.847107,11.5064019 44.0452576,10.7278646 L42.0196533,8.76215278 C41.8373107,8.585178 41.8663025,8.38541667 41.9006348,8.28135856 C41.9342041,8.17805994 42.0288086,7.99880647 42.2805785,7.96234814 L45.0798035,7.55750878 C46.1875916,7.39724397 47.1458436,6.70453564 47.6417541,5.70421017 L48.8929748,3.17947039 C49.0058898,2.9523655 49.206543,2.91818567 49.3156434,2.91818567 C49.4255066,2.91818567 49.6261598,2.9523655 49.7383117,3.17947039 L50.9902953,5.70421017 C51.1123656,5.95182292 51.2657166,6.18348519 51.4442443,6.39388011 C51.9668578,7.00835508 52.8915406,7.08506944 53.5095215,6.564019 C54.1275023,6.04296875 54.2037965,5.12315533 53.6811828,4.50792106 C53.6567687,4.47905811 53.6354064,4.44715717 53.6186219,4.41297733 L52.3666383,1.88823794 C51.789093,0.723849778 50.6202697,0 49.3156434,0 C48.0117797,0 46.8421936,0.723849778 46.2654113,1.88823794 L45.0134277,4.41297733 C44.9447633,4.55121528 44.8120117,4.647678 44.6586609,4.66970486 L41.8594359,5.07454422 C40.5685426,5.26139328 39.516449,6.14474817 39.113617,7.37977431 C38.7100219,8.61480044 39.0403748,9.94552961 39.9742127,10.8516711 L41.9998168,12.8173829 Z" id="Path" fill="#00A799"></path>
                    <path d="M22.1443176,18.3962674 C22.2099305,18.4593099 22.2396852,18.5512153 22.2236633,18.6408421 L21.7941285,21.1382379 C21.5858459,22.3459201 22.0748902,23.5422092 23.0697633,24.2622613 C24.0653992,24.9823134 25.3601074,25.0749783 26.449585,24.5053169 L28.7017822,23.3264974 C28.7826539,23.2839627 28.8795471,23.2839627 28.9604187,23.3264974 L31.2133789,24.5053169 C31.6871643,24.7536893 32.1998596,24.8759766 32.7095031,24.8759766 C33.3717346,24.8759766 34.0301514,24.6693794 34.5924377,24.2622613 C35.5880738,23.5422092 36.077118,22.3451606 35.8688355,21.1382379 L35.4385375,18.6400824 C35.4232789,18.5504558 35.4530334,18.4593099 35.5186463,18.3955079 L37.3413086,16.6272787 C38.2225037,15.7720269 38.5330199,14.5172526 38.1530762,13.3521051 C37.7731324,12.1877171 36.780548,11.3544921 35.5636598,11.1790366 L33.0436707,10.8144532 C32.9536437,10.8015408 32.875824,10.7445746 32.8353883,10.663303 L31.7085266,8.39073356 C31.1637879,7.29242617 30.0613402,6.60959211 28.831482,6.60959211 C27.6016234,6.60959211 26.499176,7.29242617 25.9544373,8.39073356 L24.8275758,10.663303 C24.7871398,10.7445746 24.7093201,10.8007812 24.6185303,10.8144532 L22.1000672,11.1790366 C20.8824158,11.3544921 19.8898316,12.1877171 19.5098877,13.3528646 C19.1291809,14.5172526 19.4404602,15.7720269 20.3216553,16.6272787 L22.1443176,18.3962674 Z M22.2969055,14.2544488 C22.3327637,14.1458333 22.4075316,14.0827907 22.5212098,14.0668403 L25.0396729,13.7022569 C26.0856629,13.5511067 26.9882203,12.8978949 27.4559021,11.9545356 L28.5827637,9.68196619 C28.6331176,9.58018658 28.717041,9.52853728 28.831482,9.52853728 C28.9459229,9.52853728 29.0298461,9.58018658 29.0802002,9.68196619 L30.2070617,11.9545356 C30.6747437,12.8978949 31.5780641,13.5511067 32.6225281,13.7022569 L35.1417541,14.0668403 C35.255432,14.0827907 35.3309631,14.1458333 35.3660584,14.2544488 C35.4011535,14.3630643 35.3775023,14.4580079 35.295868,14.5377604 L33.4732055,16.3067491 C32.7163695,17.0412326 32.3715211,18.0977648 32.5500488,19.1337891 L32.9803467,21.6319444 C33.0001832,21.7443576 32.962799,21.834744 32.8697205,21.9023437 C32.7774047,21.969184 32.6789855,21.9760199 32.5775146,21.9228516 L30.3245545,20.7440322 C29.8568727,20.4994574 29.3441773,20.3771701 28.831482,20.3771701 C28.3187867,20.3771701 27.8053283,20.4994574 27.3384094,20.7440322 L25.0854492,21.9228516 C24.9839783,21.9760199 24.885559,21.9684245 24.7924805,21.9023437 C24.7001648,21.834744 24.6627809,21.7443576 24.6826172,21.6319444 L25.112915,19.1337891 C25.2906799,18.0977648 24.9465941,17.0412326 24.1897582,16.3067491 L22.3670959,14.5377604 C22.2854613,14.4580079 22.2618104,14.3630643 22.2969055,14.2544488 Z" id="Shape" fill="#00A799"></path>
                    <path d="M63.1134033,18.3962674 C63.179016,18.4593099 63.2087707,18.5512153 63.1935119,18.6408421 L62.7632141,21.1382379 C62.5549316,22.3459201 63.0439758,23.5422092 64.0396117,24.2622613 C65.0352479,24.9823134 66.3291932,25.0757379 67.4186707,24.5053169 L69.6716309,23.3264974 C69.7525023,23.2839627 69.8493957,23.2839627 69.9302674,23.3264974 L72.1832275,24.5053169 C72.6570129,24.7536893 73.1689453,24.8759766 73.6793518,24.8759766 C74.3415832,24.8759766 74.9992371,24.6693794 75.5622863,24.2622613 C76.5571594,23.5422092 77.0462035,22.3451606 76.838684,21.1382379 L76.4083863,18.6408421 C76.3931273,18.5512153 76.422882,18.4593099 76.487732,18.3955079 L78.3103943,16.6272787 C79.1915895,15.7720269 79.5028688,14.5172526 79.1229248,13.3528646 C78.742218,12.1877171 77.7496338,11.3544921 76.5327453,11.1790366 L74.0135193,10.8144532 C73.9227295,10.8015408 73.8449098,10.7445746 73.8044738,10.663303 L72.6776123,8.39073356 C72.1336365,7.29242617 71.0311891,6.60959211 69.8013305,6.60959211 C68.5707092,6.60959211 67.4682617,7.29242617 66.923523,8.39073356 L65.7974242,10.663303 C65.7569885,10.7445746 65.6784059,10.8007812 65.5883789,10.8144532 L63.0691527,11.1790366 C61.8522645,11.3544921 60.8596801,12.1877171 60.4789734,13.3521051 C60.0990295,14.5172526 60.4095459,15.7720269 61.290741,16.6272787 L63.1134033,18.3962674 Z M63.2659912,14.2544488 C63.3018494,14.1458333 63.3766174,14.0827907 63.4902953,14.0668403 L66.0095215,13.7022569 C67.0547484,13.5511067 67.9573059,12.8978949 68.4249879,11.9545356 L69.5518494,9.68196619 C69.6022033,9.58018658 69.6861268,9.52853728 69.8005676,9.52853728 C69.9150086,9.52853728 69.9989318,9.58018658 70.0492859,9.68196619 L71.1761475,11.9545356 C71.6438293,12.8978949 72.5463867,13.5511067 73.5916137,13.7022569 L76.1116027,14.0668403 C76.2245178,14.0827907 76.3000488,14.1458333 76.3351441,14.2544488 C76.3702393,14.3630643 76.3465881,14.4580079 76.2649535,14.5377604 L74.4422912,16.3067491 C73.6862184,17.0412326 73.3413695,18.0977648 73.5191346,19.1337891 L73.9494324,21.6319444 C73.9692687,21.7443576 73.9318848,21.834744 73.8395691,21.9023437 C73.7464904,21.969184 73.6480713,21.9760199 73.5466004,21.9228516 L71.2936402,20.7440322 C70.8259582,20.4994574 70.3132629,20.3771701 69.8005676,20.3771701 C69.2878723,20.3771701 68.775177,20.4994574 68.3074951,20.7440322 L66.054535,21.9228516 C65.9530641,21.9760199 65.8546447,21.9684245 65.7623291,21.9023437 C65.6700135,21.834744 65.6326293,21.7443576 65.6517029,21.6319444 L66.0820008,19.1345486 C66.2605285,18.0977648 65.9156799,17.0412326 65.159607,16.3067491 L63.3361816,14.5377604 C63.2545471,14.4580079 63.2308961,14.3630643 63.2659912,14.2544488 Z" id="Shape" fill="#00A799"></path>
                    <path d="M78.42865,25.3780382 C78.0967713,26.3958333 78.3683777,27.491862 79.1381836,28.2392579 L80.4908752,29.5509982 L80.1712035,31.4042968 C79.989624,32.4585504 80.4168701,33.5052083 81.2866211,34.1341146 C82.1563721,34.7637803 83.2878113,34.8450521 84.2399598,34.3467882 L85.9107971,33.4717882 L87.5823975,34.3467882 C87.9959105,34.5632595 88.4445191,34.670356 88.8893127,34.670356 C89.4683838,34.670356 90.0436402,34.4895833 90.534973,34.1341146 C91.4047242,33.5052083 91.8327332,32.4585504 91.6503906,31.4042968 L91.331482,29.5517579 L92.6834105,28.2392579 C93.4532166,27.4926215 93.7255859,26.3958333 93.3929443,25.3780382 C93.0610656,24.3594836 92.1936035,23.6318359 91.1293029,23.4776477 L89.2608643,23.2072482 L88.4254455,21.5218099 C87.9493713,20.5617405 86.9857789,19.9662544 85.9107971,19.9662544 C84.8358154,19.9662544 83.8722229,20.5625 83.3961486,21.5218099 L82.5607301,23.2072482 L80.6922912,23.4776477 C79.6287537,23.6318359 78.7612914,24.3594836 78.42865,25.3780382 L78.42865,25.3780382 Z M83.0482482,26.085178 C83.9614867,25.9530164 84.7511291,25.3825954 85.1593018,24.5584852 L85.9107971,23.0424262 L86.6622926,24.5584852 C87.0712281,25.3825954 87.8601074,25.9530164 88.7733459,26.085178 L90.4533387,26.3282336 L89.2379762,27.508572 C88.5772705,28.1503907 88.2759094,29.0732421 88.431549,29.9793838 L88.7184143,31.6450738 L87.2161865,30.858941 C86.807251,30.6447482 86.3594055,30.5376519 85.9107971,30.5376519 C85.4629516,30.5376519 85.0143434,30.6447482 84.6061707,30.8581815 L83.1031799,31.6450738 L83.3908082,29.9793838 C83.5464477,29.0740018 83.2450867,28.149631 82.5836182,27.508572 L81.3682557,26.3282336 L83.0482482,26.085178 Z" id="Shape" fill="#00A799"></path>
                    <path d="M7.46917734,29.5509982 L7.15026855,31.4042968 C6.96792598,32.4585504 7.39517207,33.5052083 8.26492305,34.1341146 C9.13467402,34.7637803 10.2668762,34.8450521 11.2182617,34.3467882 L12.8898621,33.4717882 L14.5606994,34.3467882 C14.9749756,34.5632595 15.4228211,34.670356 15.8683777,34.670356 C16.4474488,34.670356 17.0219422,34.4895833 17.5140381,34.1341146 C18.3837891,33.5052083 18.8110352,32.4593099 18.6294555,31.4042968 L18.309784,29.5509982 L19.6624756,28.2392579 C20.4322814,27.4926215 20.7038879,26.3958333 20.3720094,25.3780382 C20.0393676,24.3594836 19.1719055,23.6318359 18.108368,23.4776477 L16.2399293,23.2072482 L15.4037477,21.5218099 C14.9284363,20.5625 13.9648438,19.9662544 12.8898621,19.9662544 C11.8148805,19.9662544 10.8512879,20.5625 10.3752137,21.5218099 L9.53979492,23.2072482 L7.67135625,23.4776477 C6.60705566,23.6318359 5.74035645,24.3594836 5.40771484,25.3780382 C5.07583613,26.3958333 5.34744258,27.491862 6.11724844,28.2392579 L7.46917734,29.5509982 Z M10.0273133,26.085178 C10.9405518,25.9530164 11.7294313,25.3825954 12.1383668,24.5584852 L12.8898621,23.0424262 L13.6413574,24.5584852 C14.0495301,25.3825954 14.8391723,25.9530164 15.751648,26.085178 L17.4324035,26.3282336 L16.2162781,27.508572 C15.5555725,28.149631 15.2542113,29.0740018 15.4098512,29.9793838 L15.6967164,31.6450738 L14.1944885,30.858941 C13.7855529,30.6447482 13.3377074,30.5376519 12.8890992,30.5376519 C12.4412537,30.5376519 11.9934082,30.6447482 11.5844727,30.8581815 L10.0822449,31.6450738 L10.3691102,29.9793838 C10.5247498,29.0732421 10.2233887,28.1503907 9.5626832,27.508572 L8.34732051,26.3282336 L10.0273133,26.085178 Z" id="Shape" fill="#00A799"></path>
                </g>
            </g>
        </g>
    </g>
</svg>