<?xml version="1.0" encoding="UTF-8"?>
<svg width="82px" height="100px" viewBox="0 0 82 100" version="1.1" xmlns="http://www.w3.org/2000/svg" xmlns:xlink="http://www.w3.org/1999/xlink">
    <!-- Generator: sketchtool 57.1 (101010) - https://sketch.com -->
    <title>7C9DFB24-347E-46B9-ABF1-880B1C84D5DB</title>
    <desc>Created with sketchtool.</desc>
    <g id="Page-1" stroke="none" stroke-width="1" fill="none" fill-rule="evenodd">
        <g id="6" transform="translate(-738.000000, -1275.000000)" fill-rule="nonzero">
            <g id="Group-18" transform="translate(738.000000, 1275.000000)">
                <g id="employee">
                    <path d="M13.8375,79.3814433 C12.988185,79.3814433 12.3,80.0432532 12.3,80.8600178 L12.3,87.1812193 C12.3,87.9979839 12.988185,88.6597938 13.8375,88.6597938 C14.686815,88.6597938 15.375,87.9979839 15.375,87.1812193 L15.375,80.8600178 C15.375,80.0434504 14.68661,79.3814433 13.8375,79.3814433 Z" id="Path" fill="#3F3F3F"></path>
                    <path d="M61.4529494,55.9912579 C60.082924,48.0379034 58.920437,37.6763332 57.9980012,25.1943741 C57.4415805,17.662647 54.7334587,11.3059533 50.1668372,6.81138225 C45.6403216,2.35512332 39.5905604,0 32.6730711,0 C25.7555818,0 19.7060154,2.35512332 15.1793051,6.81099329 C10.6126836,11.3057588 7.90456174,17.6624525 7.34833572,25.1941796 C6.42570529,37.6761387 5.2632182,48.0379034 3.89319281,55.990869 C3.67183159,57.2753933 4.24363273,58.5601121 5.35004942,59.2635374 C6.81099451,60.1923623 11.5364821,62.254019 15.8885565,63.8479571 L6.56023528,67.8413594 C2.57495465,69.5473166 0,73.4483421 0,77.7795519 L0,87.2012121 C0,88.0069326 0.653570448,88.6597938 1.46016633,88.6597938 C2.26676221,88.6597938 2.92033266,88.0069326 2.92033266,87.2012121 L2.92033266,77.7793575 C2.92033266,74.6167633 4.80063751,71.7684449 7.71045696,70.5226216 L12.7159071,68.3798678 C16.7187098,76.1027664 24.2936633,80.865133 32.6730711,80.865133 C35.6886066,80.865133 38.617895,80.2554458 41.3795562,79.0531855 C42.1189844,78.7315196 42.4569643,77.8719288 42.1347542,77.1334975 C41.8129336,76.3948717 40.9520195,76.0570641 40.2129807,76.379119 C37.8216176,77.4201574 35.284822,77.9479695 32.6730711,77.9479695 C25.4664689,77.9479695 18.9336847,73.8631627 15.4104007,67.2264213 L18.2888753,65.9942115 C21.0992087,71.2810841 26.6040358,74.6292099 32.6730711,74.6292099 C36.0265865,74.6292099 39.2475187,73.6188989 41.9875695,71.7075734 C44.5973734,69.8870689 46.5941022,67.3794752 47.7783944,64.4461701 C52.518289,62.8148923 58.3344235,60.320134 59.9957034,59.2639264 C61.1023148,58.5606955 61.6743107,57.2757822 61.4529494,55.9912579 Z M32.6730711,71.7120464 C27.7748945,71.7120464 23.3245022,69.0548994 20.9841476,64.8401816 L21.0468374,64.8133437 C23.3081484,63.8450399 24.7692881,61.6314963 24.7692881,59.1738833 L24.7692881,54.3111662 C27.1980315,55.3473427 29.8695518,55.9216349 32.6730711,55.9216349 C35.4765905,55.9216349 38.1481108,55.3473427 40.5768541,54.3111662 L40.5768541,59.1738833 C40.5768541,61.6314963 42.0379939,63.8450399 44.2996942,64.8133437 L44.3590743,64.8388203 C42.0263126,69.0121143 37.5362037,71.7120464 32.6730711,71.7120464 Z M58.4278742,56.8028128 C56.9295488,57.7551694 50.4199327,60.5577856 45.4688007,62.1406385 L45.4499159,62.132276 C44.2636767,61.6244951 43.4971868,60.4632695 43.4971868,59.1740778 L43.4971868,52.7710984 C49.1225262,49.1878492 52.8611361,42.8998061 52.8611361,35.7556728 L52.8611361,33.3315099 C52.8611361,31.2266792 51.9889301,29.1885543 50.4678261,27.7402799 C42.4824685,20.136985 25.6932814,18.7663071 24.9824724,18.7118534 C24.182496,18.6472869 23.4771383,19.2507508 23.4148379,20.0537486 C23.3527321,20.8567465 23.9543206,21.5580326 24.7579962,21.6202654 C24.9217295,21.6329065 41.2234158,22.9683839 48.4527966,29.8517228 C49.3982056,30.752154 49.9408034,32.0203422 49.9408034,33.3315099 L49.9408034,35.7556728 C49.9408034,45.2667926 42.1945237,53.0046659 32.6732658,53.0046659 C23.1520079,53.0046659 15.4057282,45.2667926 15.4057282,35.7556728 L15.4057282,34.5650811 C15.4057282,33.9758141 15.7045756,33.4464462 16.2047312,33.1494789 C18.1642744,31.9859196 20.9434577,29.7132548 23.0548582,25.4956199 C23.4156166,24.7750805 23.123194,23.898959 22.4018718,23.5385921 C21.6801603,23.1784197 20.8032817,23.4703305 20.442718,24.1908699 C18.5534574,27.965096 16.0417767,29.8526952 14.7122465,30.6420797 C13.3385221,31.4579131 12.4852009,32.9612246 12.4852009,34.5652756 L12.4852009,35.7558672 C12.4852009,42.9001951 16.2238107,49.1880437 21.8491502,52.7712929 L21.8491502,59.1742722 C21.8491502,60.463464 21.0824655,61.6246896 19.8966158,62.1324705 L19.8777309,62.1406385 C14.9256255,60.5560353 8.40705365,57.7491406 6.91807337,56.8026183 C6.80087069,56.7281334 6.74888877,56.6157254 6.77127798,56.4856199 C8.15707317,48.440083 9.3310469,37.9843857 10.2604914,25.4086884 C10.7643462,18.5926387 13.1738153,12.8800547 17.2287945,8.88898608 C21.1981107,4.98212627 26.5384257,2.91716348 32.6730711,2.91716348 C38.8077166,2.91716348 44.1480316,4.98212627 48.1173477,8.88898608 C52.1723269,12.8800547 54.5817961,18.5926387 55.0856508,25.4086884 C56.0149007,37.9843857 57.1890691,48.440083 58.5748643,56.4856199 C58.6036782,56.6520927 58.5110063,56.7499149 58.4278742,56.8028128 Z" id="Shape" fill="#3F3F3F"></path>
                    <path d="M63.5499036,62.8865979 C53.3764913,62.8865979 45.1,71.2111483 45.1,81.443202 C45.1,91.6754497 53.3764913,100 63.5499036,100 C73.7233158,100 82,91.6754497 82,81.443202 C82,71.2109543 73.723123,62.8865979 63.5499036,62.8865979 Z M63.5499036,97.0905482 C54.971625,97.0905482 47.9925296,90.0710909 47.9925296,81.443008 C47.9925296,72.8149251 54.9714322,65.7956618 63.5499036,65.7956618 C72.128375,65.7956618 79.1074704,72.8149251 79.1074704,81.443008 C79.1074704,90.0710909 72.1285678,97.0905482 63.5499036,97.0905482 Z" id="Shape" fill="#00A799"></path>
                    <path d="M74.388685,75.7034414 C73.8069317,75.1093651 72.8635694,75.1089592 72.28122,75.7034414 L62.1859717,86.0160542 L56.868929,80.5843253 C56.2867783,79.9900461 55.343416,79.9900461 54.761464,80.5843253 C54.179512,81.1790105 54.179512,82.1426847 54.761464,82.737167 L61.1321399,89.2450122 C61.4232152,89.5421518 61.8044941,89.6907216 62.1859717,89.6907216 C62.5672506,89.6907216 62.9487282,89.5421518 63.2398036,89.2450122 L74.388685,77.8562831 C74.9704383,77.2615979 74.9704383,76.2979237 74.388685,75.7034414 Z" id="Path" fill="#00A799"></path>
                </g>
            </g>
        </g>
    </g>
</svg>